<?xml version="1.0" standalone="no"?>
<!DOCTYPE svg PUBLIC "-//W3C//DTD SVG 20010904//EN"
 "http://www.w3.org/TR/2001/REC-SVG-20010904/DTD/svg10.dtd">
<svg version="1.0" xmlns="http://www.w3.org/2000/svg"
 width="1360.000000pt" height="1360.000000pt" viewBox="0 0 1360.000000 1360.000000"
 preserveAspectRatio="xMidYMid meet">
<metadata>
Created by potrace 1.11, written by Peter Selinger 2001-2013
</metadata>
<g transform="translate(0.000000,1360.000000) scale(0.100000,-0.100000)"
fill="#000000" stroke="none">
<path d="M10398 12832 l-118 -86 -218 -1 -218 0 -150 -118 c-82 -64 -171 -135
-199 -156 -27 -22 -147 -115 -265 -208 -118 -92 -231 -180 -250 -195 -41 -31
-298 -233 -320 -251 -22 -18 -145 -112 -147 -112 -2 0 -16 -150 -28 -305 -8
-99 -14 -174 -21 -243 -14 -146 -14 -140 33 -221 l44 -77 -31 -51 c-18 -28
-90 -140 -162 -249 l-129 -197 -47 -11 c-169 -39 -591 -133 -612 -137 -14 -3
-39 -9 -57 -15 -21 -7 -44 -7 -70 0 -21 6 -54 13 -73 16 -19 3 -93 18 -165 31
-71 14 -139 28 -150 30 -11 2 -31 6 -45 9 -14 3 -36 7 -50 10 -51 10 -236 45
-255 49 -11 3 -69 14 -130 26 -60 12 -176 35 -257 51 -81 16 -159 27 -175 25
-15 -3 -64 -8 -108 -11 -44 -4 -98 -8 -120 -11 -22 -2 -69 -6 -105 -9 -36 -3
-76 -8 -90 -10 -14 -2 -61 -6 -105 -10 -44 -3 -123 -10 -175 -15 -52 -5 -124
-12 -160 -15 -36 -3 -85 -7 -110 -10 -25 -2 -74 -7 -110 -10 -274 -25 -272
-24 -311 -59 -19 -17 -49 -42 -65 -56 -16 -14 -177 -153 -359 -309 -181 -156
-357 -307 -389 -335 -33 -28 -95 -81 -137 -118 -82 -73 -77 -61 -95 -198 -3
-19 -7 -48 -9 -65 -2 -16 -7 -52 -10 -80 -3 -27 -8 -61 -10 -75 -2 -14 -7 -43
-10 -65 -2 -22 -11 -92 -20 -155 -8 -63 -17 -133 -20 -155 -2 -22 -12 -92 -21
-155 -9 -63 -17 -126 -19 -140 -4 -38 -19 -154 -20 -160 -1 -3 -5 -34 -9 -70
-5 -36 -10 -72 -11 -80 -2 -8 -6 -42 -10 -75 -4 -33 -9 -69 -10 -80 -2 -11 -6
-47 -10 -80 -4 -33 -9 -62 -10 -65 -2 -3 -6 -37 -10 -75 l-6 -71 102 -94 c56
-52 117 -108 135 -125 161 -150 250 -232 265 -246 10 -8 73 -67 140 -130 157
-146 147 -137 200 -185 37 -33 67 -47 179 -84 74 -24 137 -44 140 -45 3 0 125
-40 271 -88 147 -48 270 -87 275 -87 9 0 571 158 844 237 85 24 162 46 170 48
21 4 825 233 880 249 25 8 90 26 145 41 55 14 120 33 145 40 25 8 77 23 115
34 39 11 111 31 160 45 50 14 94 26 98 26 4 0 31 -24 60 -54 244 -251 607
-623 626 -642 l25 -23 -49 -53 c-58 -62 -47 -50 -155 -168 -47 -51 -106 -115
-131 -143 l-46 -49 -114 2 c-63 1 -143 4 -179 5 -36 2 -155 6 -266 10 -111 4
-221 8 -245 10 -24 2 -89 7 -144 10 -55 3 -125 8 -155 10 -30 3 -98 7 -150 10
-112 6 -233 14 -310 19 -30 3 -100 7 -155 11 -55 3 -129 8 -165 10 -105 7
-237 16 -309 20 -36 2 -104 7 -149 10 -46 4 -116 8 -155 10 -40 3 -110 7 -157
10 -47 3 -119 7 -160 9 -87 5 -255 17 -287 21 -24 2 -108 -24 -498 -160 -137
-48 -365 -126 -505 -175 -140 -49 -269 -93 -286 -100 -19 -6 -71 -54 -125
-113 -126 -136 -205 -222 -259 -281 -25 -27 -58 -63 -75 -81 -85 -93 -204
-223 -234 -257 -38 -43 -32 8 -45 -428 -15 -521 -18 -609 -20 -647 -2 -33 3
-48 27 -75 26 -29 117 -131 187 -208 76 -84 113 -125 190 -210 47 -52 90 -100
95 -106 72 -80 151 -168 155 -175 3 -4 127 -56 275 -114 427 -168 519 -206
526 -216 3 -5 90 -95 193 -199 169 -170 187 -192 183 -217 -3 -15 -15 -71 -27
-123 -12 -52 -24 -104 -26 -115 -2 -11 -8 -40 -15 -65 -15 -63 -14 -59 -29
-127 l-12 -61 -182 -139 c-99 -76 -208 -158 -242 -183 -33 -25 -79 -70 -101
-100 -22 -30 -89 -118 -148 -195 -98 -129 -139 -198 -207 -354 l-19 -45 57
-206 56 -206 174 -84 174 -85 167 3 168 3 -55 26 c-30 15 -111 53 -180 86 -69
32 -152 72 -185 87 -52 24 -63 34 -78 71 -11 24 -30 67 -44 96 l-25 51 71 99
c39 54 77 107 85 118 8 11 29 39 46 63 41 56 247 192 310 204 25 4 113 19 195
33 83 14 161 27 175 29 14 3 36 7 50 10 14 2 77 19 140 36 63 18 129 36 146
40 73 17 118 50 151 108 18 31 44 75 57 97 13 22 46 78 73 125 28 47 80 137
117 199 72 123 70 114 81 301 2 47 8 133 11 191 l7 107 -73 223 c-40 123 -78
231 -85 239 -7 8 -14 20 -16 25 -2 6 -31 56 -64 113 -33 56 -71 122 -85 146
-182 317 -181 315 -234 350 -28 20 -154 107 -281 194 l-230 159 -100 147 -99
147 51 47 c72 67 412 392 438 420 l22 24 604 -1 604 0 220 -72 c121 -39 285
-93 365 -119 80 -26 320 -105 534 -175 l388 -128 67 12 c36 6 77 14 91 16 14
2 39 6 55 9 17 3 98 17 180 31 83 14 161 27 175 30 13 3 40 7 60 10 20 3 47 7
60 10 13 3 40 7 60 10 34 5 46 7 110 19 14 3 41 8 60 10 19 3 49 8 65 11 17 3
57 10 90 16 33 6 71 12 85 15 14 2 93 15 175 29 83 14 162 27 178 30 15 3 38
7 52 9 14 3 33 7 43 11 9 3 136 173 282 376 146 204 270 376 275 382 6 7 36
49 68 94 64 91 58 61 72 353 3 63 8 156 10 205 9 157 14 256 21 405 3 80 7
168 9 195 3 58 2 58 -118 250 -49 77 -94 149 -100 160 -7 10 -35 55 -63 100
-52 80 -215 343 -237 380 -7 10 -33 52 -59 93 -27 40 -48 75 -48 78 0 2 -15
26 -32 53 -18 27 -55 85 -83 130 -27 45 -57 91 -65 102 -9 11 -80 41 -180 75
-91 31 -268 91 -395 134 -126 43 -374 128 -550 188 -275 93 -325 107 -355 100
-19 -4 -51 -10 -70 -13 -19 -4 -43 -8 -52 -11 -10 -3 -30 -7 -45 -10 -16 -3
-197 -39 -403 -80 -206 -42 -387 -78 -403 -79 -15 -2 -31 -6 -35 -9 -4 -2 -27
-7 -52 -11 -25 -4 -47 -8 -50 -10 -4 -2 -29 -7 -56 -11 -27 -3 -52 -8 -55 -10
-4 -2 -24 -6 -45 -9 -22 -4 -47 -8 -56 -11 -10 -3 -30 -7 -45 -10 -16 -3 -35
-7 -43 -9 -8 -2 -31 -7 -50 -10 -19 -3 -147 -29 -284 -56 -222 -45 -253 -50
-293 -40 -25 7 -148 43 -275 81 -126 39 -237 70 -245 70 -12 0 -14 8 -8 38 7
39 47 192 133 511 l28 103 394 160 c217 87 409 166 427 174 17 8 35 14 40 14
8 0 369 -138 418 -159 66 -29 302 -116 313 -115 7 1 70 5 140 9 70 3 154 8
187 10 90 6 229 15 325 20 104 6 231 14 325 20 39 3 115 7 170 10 273 16 185
-15 753 268 l506 252 39 70 c22 39 58 104 80 145 22 41 51 92 64 112 13 21 23
39 23 41 0 3 34 65 76 138 120 211 123 217 117 223 -4 3 7 6 23 6 33 1 129 10
159 15 11 2 28 4 38 4 10 1 46 27 80 59 35 31 107 98 162 147 179 163 216 200
219 220 4 19 44 195 51 225 11 45 76 328 79 345 2 11 16 72 31 135 15 63 33
143 40 176 7 34 21 91 29 128 16 68 35 148 60 259 8 34 26 112 40 174 14 61
26 120 26 130 0 10 -22 43 -48 74 -26 30 -66 78 -89 105 -23 27 -51 60 -63 74
-12 14 -32 39 -45 55 l-23 30 24 115 c13 63 23 118 21 121 -1 4 -55 -32 -119
-79z"/>
</g>
</svg>
